<svg width="1920" height="1080" viewBox="0 0 1920 1080" fill="none" xmlns="http://www.w3.org/2000/svg">
<g clip-path="url(#clip0_142_14)">
<rect width="1920" height="1080" fill="#D1D0D0"/>
<g filter="url(#filter0_d_142_14)">
<path d="M1919 -20H-1V1070.98H1919V-20Z" fill="black"/>
<path d="M-0.5 -19.5H1918.5V1070.48H-0.5V-19.5Z" stroke="#090000"/>
</g>
<g clip-path="url(#clip1_142_14)">
<path d="M-59 849.678L-27.1604 865.711C4.67917 881.963 68.3583 914.029 132.477 915.127C196.375 916.226 260.933 886.356 324.832 879.328C388.95 872.3 452.629 888.552 516.308 895.8C579.988 903.048 643.667 901.73 707.346 905.683C771.025 909.637 834.704 919.3 898.823 926.548C962.721 933.796 1027.28 939.067 1091.18 926.109C1155.3 913.37 1218.98 882.622 1282.65 872.739C1346.33 862.856 1410.01 873.837 1473.69 884.16C1537.37 894.263 1601.05 903.926 1665.17 902.389C1729.07 900.851 1793.62 888.552 1857.52 876.473C1921.64 864.393 1985.32 852.533 2017.16 846.823L2049 840.893V1135.2H2017.16C1985.32 1135.2 1921.64 1135.2 1857.52 1135.2C1793.62 1135.2 1729.07 1135.2 1665.17 1135.2C1601.05 1135.2 1537.37 1135.2 1473.69 1135.2C1410.01 1135.2 1346.33 1135.2 1282.65 1135.2C1218.98 1135.2 1155.3 1135.2 1091.18 1135.2C1027.28 1135.2 962.721 1135.2 898.823 1135.2C834.704 1135.2 771.025 1135.2 707.346 1135.2C643.667 1135.2 579.988 1135.2 516.308 1135.2C452.629 1135.2 388.95 1135.2 324.832 1135.2C260.933 1135.2 196.375 1135.2 132.477 1135.2C68.3583 1135.2 4.67917 1135.2 -27.1604 1135.2H-59V849.678Z" fill="#031A63"/>
<path d="M-59 867.248L-27.1604 876.473C4.67917 885.477 68.3583 903.926 132.477 915.567C196.375 927.207 260.933 932.478 324.832 935.992C388.95 939.726 452.629 941.922 516.308 940.165C579.988 938.188 643.667 932.478 707.346 932.039C771.025 931.6 834.704 936.871 898.823 936.871C962.721 936.871 1027.28 931.6 1091.18 919.3C1155.3 906.781 1218.98 887.015 1282.65 882.622C1346.33 878.23 1410.01 889.211 1473.69 897.557C1537.37 906.122 1601.05 911.833 1665.17 917.104C1729.07 922.155 1793.62 926.548 1857.52 917.324C1921.64 908.319 1985.32 885.477 2017.16 874.276L2049 862.855V1135.2H2017.16C1985.32 1135.2 1921.64 1135.2 1857.52 1135.2C1793.62 1135.2 1729.07 1135.2 1665.17 1135.2C1601.05 1135.2 1537.37 1135.2 1473.69 1135.2C1410.01 1135.2 1346.33 1135.2 1282.65 1135.2C1218.98 1135.2 1155.3 1135.2 1091.18 1135.2C1027.28 1135.2 962.721 1135.2 898.823 1135.2C834.704 1135.2 771.025 1135.2 707.346 1135.2C643.667 1135.2 579.988 1135.2 516.308 1135.2C452.629 1135.2 388.95 1135.2 324.832 1135.2C260.933 1135.2 196.375 1135.2 132.477 1135.2C68.3583 1135.2 4.67917 1135.2 -27.1604 1135.2H-59V867.248Z" fill="#061B6D"/>
<path d="M-59 933.137L-27.1604 939.726C4.67917 946.315 68.3583 959.493 132.477 956.637C196.375 953.563 260.933 934.674 324.832 926.987C388.95 919.3 452.629 922.814 516.308 931.6C579.988 940.385 643.667 954.441 707.346 963.885C771.025 973.329 834.704 978.6 898.823 982.554C962.721 986.507 1027.28 989.582 1091.18 976.624C1155.3 963.885 1218.98 935.333 1282.65 935.333C1346.33 935.333 1410.01 963.885 1473.69 963.446C1537.37 963.226 1601.05 933.796 1665.17 926.548C1729.07 919.3 1793.62 933.796 1857.52 941.483C1921.64 949.17 1985.32 950.048 2017.16 950.268L2049 950.707V1135.2H2017.16C1985.32 1135.2 1921.64 1135.2 1857.52 1135.2C1793.62 1135.2 1729.07 1135.2 1665.17 1135.2C1601.05 1135.2 1537.37 1135.2 1473.69 1135.2C1410.01 1135.2 1346.33 1135.2 1282.65 1135.2C1218.98 1135.2 1155.3 1135.2 1091.18 1135.2C1027.28 1135.2 962.721 1135.2 898.823 1135.2C834.704 1135.2 771.025 1135.2 707.346 1135.2C643.667 1135.2 579.988 1135.2 516.308 1135.2C452.629 1135.2 388.95 1135.2 324.832 1135.2C260.933 1135.2 196.375 1135.2 132.477 1135.2C68.3583 1135.2 4.67917 1135.2 -27.1604 1135.2H-59V933.137Z" fill="#0C1C76"/>
<path d="M-59 990.241L-27.1604 992.876C4.67917 995.292 68.3583 1000.56 132.477 996.83C196.375 993.096 260.933 980.797 324.832 972.231C388.95 963.885 452.629 959.493 516.308 966.521C579.988 973.329 643.667 991.778 707.346 992.437C771.025 993.096 834.704 976.404 898.823 962.348C962.721 948.511 1027.28 937.53 1091.18 946.315C1155.3 955.1 1218.98 983.652 1282.65 992.876C1346.33 1001.88 1410.01 991.778 1473.69 984.75C1537.37 977.722 1601.05 974.208 1665.17 971.572C1729.07 968.937 1793.62 967.619 1857.52 965.642C1921.64 963.885 1985.32 961.689 2017.16 960.591L2049 959.493V1135.2H2017.16C1985.32 1135.2 1921.64 1135.2 1857.52 1135.2C1793.62 1135.2 1729.07 1135.2 1665.17 1135.2C1601.05 1135.2 1537.37 1135.2 1473.69 1135.2C1410.01 1135.2 1346.33 1135.2 1282.65 1135.2C1218.98 1135.2 1155.3 1135.2 1091.18 1135.2C1027.28 1135.2 962.721 1135.2 898.823 1135.2C834.704 1135.2 771.025 1135.2 707.346 1135.2C643.667 1135.2 579.988 1135.2 516.308 1135.2C452.629 1135.2 388.95 1135.2 324.832 1135.2C260.933 1135.2 196.375 1135.2 132.477 1135.2C68.3583 1135.2 4.67917 1135.2 -27.1604 1135.2H-59V990.241Z" fill="#131D80"/>
<path d="M-59 1016.6L-27.1604 1014.4C4.67917 1012.2 68.3583 1007.81 132.477 1007.15C196.375 1006.27 260.933 1009.35 324.832 1002.98C388.95 996.829 452.629 981.455 516.308 973.768C579.988 966.081 643.667 966.081 707.346 976.404C771.025 986.507 834.704 1007.15 898.823 1008.47C962.721 1010.01 1027.28 992.437 1091.18 981.455C1155.3 970.474 1218.98 966.081 1282.65 967.619C1346.33 968.937 1410.01 976.404 1473.69 988.044C1537.37 999.685 1601.05 1015.94 1665.17 1024.28C1729.07 1032.63 1793.62 1033.51 1857.52 1023.62C1921.64 1013.74 1985.32 993.096 2017.16 982.993L2049 972.67V1135.2H2017.16C1985.32 1135.2 1921.64 1135.2 1857.52 1135.2C1793.62 1135.2 1729.07 1135.2 1665.17 1135.2C1601.05 1135.2 1537.37 1135.2 1473.69 1135.2C1410.01 1135.2 1346.33 1135.2 1282.65 1135.2C1218.98 1135.2 1155.3 1135.2 1091.18 1135.2C1027.28 1135.2 962.721 1135.2 898.823 1135.2C834.704 1135.2 771.025 1135.2 707.346 1135.2C643.667 1135.2 579.988 1135.2 516.308 1135.2C452.629 1135.2 388.95 1135.2 324.832 1135.2C260.933 1135.2 196.375 1135.2 132.477 1135.2C68.3583 1135.2 4.67917 1135.2 -27.1604 1135.2H-59V1016.6Z" fill="#1F238A"/>
<path d="M-59 1007.81L-27.1604 1010.01C4.67917 1012.2 68.3583 1016.6 132.477 1016.6C196.375 1016.6 260.933 1012.2 324.832 1019.89C388.95 1027.58 452.629 1047.34 516.308 1047.34C579.988 1047.34 643.667 1027.58 707.346 1020.33C771.025 1012.86 834.704 1018.13 898.823 1027.58C962.721 1037.02 1027.28 1051.08 1091.18 1053.93C1155.3 1056.79 1218.98 1048.88 1282.65 1039.66C1346.33 1030.43 1410.01 1020.33 1473.69 1024.28C1537.37 1028.24 1601.05 1046.69 1665.17 1053.93C1729.07 1061.18 1793.62 1057.67 1857.52 1048C1921.64 1038.56 1985.32 1023.19 2017.16 1015.5L2049 1007.81V1135.2H2017.16C1985.32 1135.2 1921.64 1135.2 1857.52 1135.2C1793.62 1135.2 1729.07 1135.2 1665.17 1135.2C1601.05 1135.2 1537.37 1135.2 1473.69 1135.2C1410.01 1135.2 1346.33 1135.2 1282.65 1135.2C1218.98 1135.2 1155.3 1135.2 1091.18 1135.2C1027.28 1135.2 962.721 1135.2 898.823 1135.2C834.704 1135.2 771.025 1135.2 707.346 1135.2C643.667 1135.2 579.988 1135.2 516.308 1135.2C452.629 1135.2 388.95 1135.2 324.832 1135.2C260.933 1135.2 196.375 1135.2 132.477 1135.2C68.3583 1135.2 4.67917 1135.2 -27.1604 1135.2H-59V1007.81Z" fill="#2E2E94"/>
<path d="M-59 1045.15L-27.1604 1048C4.67917 1051.08 68.3583 1056.79 132.477 1060.52C196.375 1064.26 260.933 1065.57 324.832 1067.77C388.95 1069.97 452.629 1073.04 516.308 1069.75C579.988 1066.45 643.667 1056.79 707.346 1058.99C771.025 1061.18 834.704 1075.24 898.823 1074.36C962.721 1073.7 1027.28 1058.33 1091.18 1057.89C1155.3 1057.67 1218.98 1072.16 1282.65 1076.34C1346.33 1080.29 1410.01 1073.7 1473.69 1066.67C1537.37 1059.86 1601.05 1052.4 1665.17 1051.08C1729.07 1049.54 1793.62 1053.93 1857.52 1053.49C1921.64 1053.27 1985.32 1048 2017.16 1045.59L2049 1042.95V1135.2H2017.16C1985.32 1135.2 1921.64 1135.2 1857.52 1135.2C1793.62 1135.2 1729.07 1135.2 1665.17 1135.2C1601.05 1135.2 1537.37 1135.2 1473.69 1135.2C1410.01 1135.2 1346.33 1135.2 1282.65 1135.2C1218.98 1135.2 1155.3 1135.2 1091.18 1135.2C1027.28 1135.2 962.721 1135.2 898.823 1135.2C834.704 1135.2 771.025 1135.2 707.346 1135.2C643.667 1135.2 579.988 1135.2 516.308 1135.2C452.629 1135.2 388.95 1135.2 324.832 1135.2C260.933 1135.2 196.375 1135.2 132.477 1135.2C68.3583 1135.2 4.67917 1135.2 -27.1604 1135.2H-59V1045.15Z" fill="#3A399E"/>
<path d="M-59 1078.09L-27.1604 1083.14C4.67917 1088.42 68.3583 1098.52 132.477 1099.62C196.375 1100.71 260.933 1092.81 324.832 1086.22C388.95 1079.63 452.629 1074.36 516.308 1078.53C579.988 1082.49 643.667 1095.66 707.346 1098.96C771.025 1102.25 834.704 1095.66 898.823 1093.03C962.721 1090.61 1027.28 1091.93 1091.18 1090.83C1155.3 1089.73 1218.98 1086.22 1282.65 1088.63C1346.33 1091.27 1410.01 1100.06 1473.69 1103.35C1537.37 1106.64 1601.05 1104.45 1665.17 1098.3C1729.07 1091.93 1793.62 1081.83 1857.52 1082.05C1921.64 1082.49 1985.32 1093.47 2017.16 1098.96L2049 1104.45V1135.2H2017.16C1985.32 1135.2 1921.64 1135.2 1857.52 1135.2C1793.62 1135.2 1729.07 1135.2 1665.17 1135.2C1601.05 1135.2 1537.37 1135.2 1473.69 1135.2C1410.01 1135.2 1346.33 1135.2 1282.65 1135.2C1218.98 1135.2 1155.3 1135.2 1091.18 1135.2C1027.28 1135.2 962.721 1135.2 898.823 1135.2C834.704 1135.2 771.025 1135.2 707.346 1135.2C643.667 1135.2 579.988 1135.2 516.308 1135.2C452.629 1135.2 388.95 1135.2 324.832 1135.2C260.933 1135.2 196.375 1135.2 132.477 1135.2C68.3583 1135.2 4.67917 1135.2 -27.1604 1135.2H-59V1078.09Z" fill="#4645A8"/>
</g>
</g>
<defs>
<filter id="filter0_d_142_14" x="-5" y="-20" width="1928" height="1098.98" filterUnits="userSpaceOnUse" color-interpolation-filters="sRGB">
<feFlood flood-opacity="0" result="BackgroundImageFix"/>
<feColorMatrix in="SourceAlpha" type="matrix" values="0 0 0 0 0 0 0 0 0 0 0 0 0 0 0 0 0 0 127 0" result="hardAlpha"/>
<feOffset dy="4"/>
<feGaussianBlur stdDeviation="2"/>
<feComposite in2="hardAlpha" operator="out"/>
<feColorMatrix type="matrix" values="0 0 0 0 0 0 0 0 0 0 0 0 0 0 0 0 0 0 0.25 0"/>
<feBlend mode="normal" in2="BackgroundImageFix" result="effect1_dropShadow_142_14"/>
<feBlend mode="normal" in="SourceGraphic" in2="effect1_dropShadow_142_14" result="shape"/>
</filter>
<clipPath id="clip0_142_14">
<rect width="1920" height="1080" fill="white"/>
</clipPath>
<clipPath id="clip1_142_14">
<rect width="2108" height="1186" fill="white" transform="translate(-59 -53)"/>
</clipPath>
</defs>
</svg>
